<svg width="106" height="53" viewBox="0 0 106 53" fill="none" xmlns="http://www.w3.org/2000/svg">
<rect width="106" height="53" fill="#E5E5E5"/>
<g clip-path="url(#clip0_1_293)">
<rect width="1600" height="2931" transform="translate(-247 -2461)" fill="white"/>
<rect x="-31.5" y="-13.5" width="169" height="80" rx="3.5" stroke="#AFB1B8"/>
<g clip-path="url(#clip1_1_293)">
<path fill-rule="evenodd" clip-rule="evenodd" d="M38 7.08698L45.0078 13.7211L32 13.7134V45.9007H66V33.594L73 40.2208V7.08698H38ZM65.6924 32.8153L45.8226 14.0049H65.6924V32.8153ZM59.5231 41.1925H37.3801V19.5449H38.9453V39.7267H59.5231V41.1925ZM42.6089 50.1861L41.791 51.8707L40.9731 50.1861H40.2871L41.481 52.4322V53.7408H42.1011V52.4322L43.2925 50.1861H42.6089ZM43.6367 53.7408L43.9248 52.9131H45.3018L45.5923 53.7408H46.2368L44.8916 50.1861H44.3374L42.9946 53.7408H43.6367ZM44.6133 50.9405L45.1284 52.4151H44.0981L44.6133 50.9405ZM47.8701 52.3297C47.7806 52.4664 47.7358 52.6169 47.7358 52.7813C47.7358 53.0808 47.8408 53.3241 48.0508 53.5113C48.2624 53.6968 48.5439 53.7896 48.8955 53.7896C49.2471 53.7896 49.5498 53.6944 49.8037 53.504L50.0039 53.7408H50.6924L50.1699 53.1231C50.375 52.8432 50.4775 52.4843 50.4775 52.0464H49.9624C49.9624 52.2857 49.9128 52.503 49.8135 52.6983L49.1274 51.8878L49.3691 51.712C49.54 51.5883 49.6629 51.4646 49.7378 51.3409C49.8127 51.2156 49.8501 51.0788 49.8501 50.9307C49.8501 50.7061 49.7671 50.5181 49.6011 50.3668C49.4367 50.2138 49.2251 50.1373 48.9663 50.1373C48.6798 50.1373 48.452 50.2186 48.2827 50.3814C48.1134 50.5425 48.0288 50.7623 48.0288 51.0406C48.0288 51.1545 48.0557 51.2725 48.1094 51.3946C48.1647 51.5167 48.2616 51.6648 48.3999 51.8389C48.1362 52.0277 47.9596 52.1913 47.8701 52.3297ZM49.4741 53.1158C49.3 53.2492 49.1128 53.316 48.9126 53.316C48.7352 53.316 48.5936 53.2647 48.4878 53.1622C48.382 53.0596 48.3291 52.9262 48.3291 52.7618C48.3291 52.5714 48.4268 52.4021 48.6221 52.254L48.6978 52.2003L49.4741 53.1158ZM48.8369 51.5411C48.6693 51.3344 48.5854 51.1627 48.5854 51.0259C48.5854 50.9071 48.6196 50.8087 48.688 50.7305C48.7563 50.6524 48.8483 50.6133 48.9639 50.6133C49.0713 50.6133 49.16 50.6467 49.23 50.7134C49.3 50.7785 49.335 50.8575 49.335 50.9503C49.335 51.0902 49.2845 51.205 49.1836 51.2945L49.1079 51.3555L48.8369 51.5411ZM54.623 53.4722C54.8672 53.259 55.0072 52.9628 55.043 52.5836H54.4277C54.3952 52.8375 54.3179 53.0189 54.1958 53.128C54.0737 53.237 53.8914 53.2916 53.6489 53.2916C53.3836 53.2916 53.1818 53.1907 53.0435 52.9888C52.9067 52.787 52.8384 52.494 52.8384 52.1099V51.795C52.8416 51.4158 52.9149 51.1285 53.0581 50.9332C53.203 50.7362 53.4097 50.6378 53.6782 50.6378C53.9093 50.6378 54.0843 50.6947 54.2031 50.8087C54.3236 50.921 54.3984 51.1049 54.4277 51.3604H55.043C55.0039 50.9714 54.8647 50.6703 54.6255 50.4571C54.3862 50.2439 54.0705 50.1373 53.6782 50.1373C53.3869 50.1373 53.1297 50.2064 52.9067 50.3448C52.6854 50.4831 52.5153 50.6801 52.3965 50.9356C52.2777 51.1911 52.2183 51.4866 52.2183 51.8218V52.1539C52.2231 52.481 52.2842 52.7683 52.4014 53.0157C52.5186 53.2631 52.6846 53.4543 52.8994 53.5894C53.1159 53.7229 53.3657 53.7896 53.6489 53.7896C54.0542 53.7896 54.3789 53.6838 54.623 53.4722ZM58.2534 52.9742C58.3739 52.7105 58.4341 52.4045 58.4341 52.0562V51.8585C58.4325 51.5118 58.3706 51.2082 58.2485 50.9478C58.1265 50.6858 57.9531 50.4856 57.7285 50.3472C57.5055 50.2073 57.2492 50.1373 56.9595 50.1373C56.6698 50.1373 56.4126 50.2081 56.188 50.3497C55.965 50.4896 55.7917 50.6923 55.668 50.9576C55.5459 51.2229 55.4849 51.5289 55.4849 51.8755V52.0757C55.4865 52.4159 55.5483 52.7162 55.6704 52.9766C55.7941 53.237 55.9683 53.438 56.1929 53.5797C56.4191 53.7196 56.6763 53.7896 56.9644 53.7896C57.2557 53.7896 57.5129 53.7196 57.7358 53.5797C57.9604 53.438 58.133 53.2362 58.2534 52.9742ZM57.5918 50.9649C57.7415 51.1749 57.8164 51.4768 57.8164 51.8707V52.0562C57.8164 52.4566 57.7423 52.761 57.5942 52.9693C57.4478 53.1776 57.2378 53.2818 56.9644 53.2818C56.6942 53.2818 56.4826 53.1752 56.3296 52.962C56.1782 52.7488 56.1025 52.4468 56.1025 52.0562V51.8511C56.1058 51.4686 56.1823 51.1732 56.332 50.9649C56.4834 50.7549 56.6925 50.65 56.9595 50.65C57.2329 50.65 57.4437 50.7549 57.5918 50.9649Z" fill="#AFB1B8"/>
</g>
</g>
<defs>
<clipPath id="clip0_1_293">
<rect width="1600" height="2931" fill="white" transform="translate(-247 -2461)"/>
</clipPath>
<clipPath id="clip1_1_293">
<rect width="106" height="52.8261" fill="white" transform="translate(0 0.0869751)"/>
</clipPath>
</defs>
</svg>
