<svg aria-hidden="true" style="position: absolute; width: 0; height: 0; overflow: hidden;" version="1.1" xmlns="http://www.w3.org/2000/svg" xmlns:xlink="http://www.w3.org/1999/xlink">
<defs>
<symbol id="icon-smartphone" viewBox="0 0 24 24">
<path d="M7 1c-0.828 0-1.58 0.337-2.121 0.879s-0.879 1.293-0.879 2.121v16c0 0.828 0.337 1.58 0.879 2.121s1.293 0.879 2.121 0.879h10c0.828 0 1.58-0.337 2.121-0.879s0.879-1.293 0.879-2.121v-16c0-0.828-0.337-1.58-0.879-2.121s-1.293-0.879-2.121-0.879zM7 3h10c0.276 0 0.525 0.111 0.707 0.293s0.293 0.431 0.293 0.707v16c0 0.276-0.111 0.525-0.293 0.707s-0.431 0.293-0.707 0.293h-10c-0.276 0-0.525-0.111-0.707-0.293s-0.293-0.431-0.293-0.707v-16c0-0.276 0.111-0.525 0.293-0.707s0.431-0.293 0.707-0.293zM12 19c0.552 0 1-0.448 1-1s-0.448-1-1-1-1 0.448-1 1 0.448 1 1 1z"></path>
</symbol>
<symbol id="icon-mail-envelope-closed" viewBox="0 0 32 32">
<path d="M5.315 9.274l11.185 9.726 11.187-9.728c0.194 0.184 0.313 0.445 0.313 0.735v11.986c0 0.557-0.449 1.007-1.003 1.007h-20.994c-0.564 0-1.003-0.451-1.003-1.007v-11.986c0-0.289 0.121-0.549 0.315-0.733zM6.004 8c-1.107 0-2.004 0.895-2.004 1.994v12.012c0 1.101 0.89 1.994 2.004 1.994h20.993c1.107 0 2.004-0.895 2.004-1.994v-12.012c0-1.101-0.89-1.994-2.004-1.994h-20.993zM16.5 17.7l-10-8.7h20l-10 8.7z"></path>
</symbol>
</defs>
</svg>
